<?xml version="1.0"?>
<svg xmlns="http://www.w3.org/2000/svg" id="Layer" enable-background="new 0 0 512 512" height="512" viewBox="0 0 512 512" width="512" class=""><g><path d="m420.05 91.95c41.98 41.99 67.95 99.99 67.95 164.05 0 128.13-103.87 232-232 232-64.06 0-122.06-25.97-164.05-67.95z" fill="#dccfcf" data-original="#DCCFCF" class="" style="fill:#45339C" data-old_color="#dccfcf"/><path d="m420.05 91.95-328.1 328.1c-41.98-41.99-67.95-99.99-67.95-164.05 0-128.13 103.87-232 232-232 64.06 0 122.06 25.97 164.05 67.95z" fill="#f0eaea" data-original="#F0EAEA" class="active-path" style="fill:#9C88FF" data-old_color="#f0eaea"/><path d="m437.021 74.979c-.001 0-.001 0 0 0-.001-.001-.001-.001-.002-.002-48.363-48.35-112.649-74.977-181.019-74.977-68.38 0-132.667 26.629-181.02 74.98-48.351 48.353-74.98 112.64-74.98 181.02 0 68.37 26.627 132.657 74.978 181.019.001.001.003.002.004.004 48.361 48.35 112.648 74.977 181.018 74.977 68.38 0 132.667-26.629 181.02-74.98 48.351-48.353 74.98-112.64 74.98-181.02 0-68.369-26.627-132.655-74.979-181.021 0 .001 0 .001 0 0zm-181.021-26.979c47.472 0 92.514 15.813 129.135 44.924l-292.211 292.211c-29.112-36.623-44.924-81.664-44.924-129.135 0-114.691 93.309-208 208-208zm0 416c-47.471 0-92.512-15.812-129.135-44.924l292.21-292.21c29.113 36.622 44.925 81.663 44.925 129.134 0 114.691-93.309 208-208 208z" data-original="#000000" class=""/><path d="m128 200h16v16c0 13.255 10.745 24 24 24s24-10.745 24-24v-16h16c13.255 0 24-10.745 24-24s-10.745-24-24-24h-16v-16c0-13.255-10.745-24-24-24s-24 10.745-24 24v16h-16c-13.255 0-24 10.745-24 24s10.745 24 24 24z" data-original="#000000" class=""/><path d="m384 312h-80c-13.255 0-24 10.745-24 24s10.745 24 24 24h80c13.255 0 24-10.745 24-24s-10.745-24-24-24z" data-original="#000000" class=""/></g> </svg>
